PathFileType	4	(X/Y/Z)	 s04c0401.trc
DataRate	CameraRate	NumFrames	NumMarkers	Units	OrigDataRate	OrigDataStartFrame	OrigNumFrames
200	200	7	50	mm	200	1751	2000
Frame#	Time	racr			lacr			c7			jug			rlel			rdr			llel			ldr			s2			lic			ric			lasi			rasi			rpsi			lpsi			rgt			lgt			rth1			rth2			rth3			rth4			rlfc			rmfc			rsh1			rsh2			rsh3			rsh4			rlmal			rmmal			rcal			rtoe			rmt5			lth1			lth2			lth4			lth3			llfc			lmfc			lsh1			lsh2			lsh3			lsh4			llmal			lmmal			lcal			ltoe			lmt5			SBIKE			LBIKE			RBIKE			
		X1	Y1	Z1	X2	Y2	Z2	X3	Y3	Z3	X4	Y4	Z4	X5	Y5	Z5	X6	Y6	Z6	X7	Y7	Z7	X8	Y8	Z8	X9	Y9	Z9	X10	Y10	Z10	X11	Y11	Z11	X12	Y12	Z12	X13	Y13	Z13	X14	Y14	Z14	X15	Y15	Z15	X16	Y16	Z16	X17	Y17	Z17	X18	Y18	Z18	X19	Y19	Z19	X20	Y20	Z20	X21	Y21	Z21	X22	Y22	Z22	X23	Y23	Z23	X24	Y24	Z24	X25	Y25	Z25	X26	Y26	Z26	X27	Y27	Z27	X28	Y28	Z28	X29	Y29	Z29	X30	Y30	Z30	X31	Y31	Z31	X32	Y32	Z32	X33	Y33	Z33	X34	Y34	Z34	X35	Y35	Z35	X36	Y36	Z36	X37	Y37	Z37	X38	Y38	Z38	X39	Y39	Z39	X40	Y40	Z40	X41	Y41	Z41	X42	Y42	Z42	X43	Y43	Z43	X44	Y44	Z44	X45	Y45	Z45	X46	Y46	Z46	X47	Y47	Z47	X48	Y48	Z48	X49	Y49	Z49	X50	Y50	Z50	
1751	8.7550	813.881586	1287.538615	-106.588209	799.372082	1263.971648	-430.695487	822.810789	1345.756740	-271.269884	761.281011	1202.135327	-266.917115	558.883514	1157.177877	57.216029	701.330866	937.794656	-45.989779	570.922481	1151.233201	-590.365235	698.000351	947.475404	-478.310295	223.803820	1243.948792	-235.057189	365.797144	1208.960244	-405.183746	385.153488	1223.877905	-87.486047	393.498671	1149.685743	-365.772395	NaN	NaN	NaN	264.604626	1281.982596	-197.930699	261.673561	1280.324770	-273.838780	337.757262	1183.855990	-56.484252	279.437441	1127.556637	-418.859760	441.270469	1070.526637	-63.275509	516.429376	1028.083541	-79.768478	563.233268	956.748699	-83.970688	534.431088	1051.766612	-103.474814	640.283375	837.454653	-123.799900	608.920573	830.904127	-234.623375	534.049313	784.074510	-94.970468	463.423968	727.484733	-107.199049	377.547044	718.283621	-107.707959	477.492455	702.883238	-134.079764	244.952390	643.316049	-111.838726	259.346614	640.513960	-198.196335	168.519165	670.147956	-146.507456	373.428626	448.981526	-157.486011	312.179344	477.300574	-97.989577	281.171598	1036.634906	-444.944698	315.202637	958.231476	-461.044568	351.405288	964.351118	-461.420164	306.668308	869.511714	-462.621710	319.484053	701.180004	-456.764066	369.208816	665.232133	-356.004974	279.442429	576.953155	-475.056052	274.239955	491.510470	-458.667470	225.028053	418.151097	-449.717330	307.027720	483.487571	-437.398385	174.894383	278.423939	-437.567184	180.685091	280.887394	-349.737536	103.960655	293.015475	-392.816008	359.980155	131.678326	-408.043849	278.485656	135.627450	-466.974546	-177.448901	938.600957	-279.491035	-3.099261	85.825879	-484.700936	-14.944784	80.567234	-84.254197	
1752	8.7600	813.087689	1288.755135	-107.500394	798.696566	1264.713722	-431.270211	821.827189	1346.726626	-271.865695	760.535763	1203.068278	-267.505874	558.979338	1157.436853	56.990433	701.331488	937.792672	-45.935966	570.666231	1150.858940	-591.017498	697.754888	947.406753	-478.125840	223.059576	1243.733376	-235.008968	364.756420	1208.570701	-405.293925	384.601814	1223.888374	-87.755018	392.639968	1149.403569	-365.645011	NaN	NaN	NaN	263.848864	1281.750559	-198.098729	260.709440	1280.033864	-274.040648	337.335843	1183.866011	-56.735066	278.775695	1126.794379	-418.932613	440.804562	1070.421814	-63.362483	516.111781	1027.739872	-79.480924	562.387944	956.103541	-83.999161	533.903599	1051.465081	-103.281854	638.714403	836.179638	-123.172153	607.495701	829.457833	-234.168657	532.258974	782.761230	-94.275309	461.308234	726.933559	-106.852446	375.323848	718.289204	-107.453764	475.180529	702.225971	-133.720256	242.192794	644.295127	-111.732189	256.863650	640.905025	-198.056023	166.532509	672.441694	-146.812308	366.476153	446.580927	-157.686483	305.805747	476.270065	-98.109851	281.229219	1035.578911	-445.093953	315.627442	957.172480	-460.678543	351.845219	963.400425	-460.396224	307.266886	868.457270	-462.227402	320.050645	700.058779	-455.965808	368.708704	664.787260	-354.542353	281.579126	575.486888	-474.377875	276.730037	490.028210	-457.791611	228.027949	416.259472	-449.214528	309.347254	482.248234	-436.098219	178.759810	276.379543	-437.526405	184.243660	279.207800	-349.517987	107.212716	289.881990	-392.921346	366.219092	133.438108	-407.820906	284.775189	135.895016	-466.841786	-177.456504	938.578033	-279.635393	-3.100962	85.798482	-484.715404	-14.957843	80.582564	-84.261291	
1753	8.7650	812.299032	1290.026025	-108.354873	797.919016	1265.311401	-431.882354	820.709494	1347.559673	-272.674923	759.956257	1203.750620	-268.140684	558.998170	1157.679437	56.741434	701.402320	937.768369	-45.831055	570.380355	1150.391241	-591.595607	697.478518	947.316299	-477.886274	222.191391	1243.386987	-235.051986	363.685779	1208.067541	-405.494587	384.018185	1223.879015	-88.125753	391.672487	1149.208738	-365.654310	NaN	NaN	NaN	263.064257	1281.537776	-198.242448	259.624025	1279.829091	-274.252725	336.930032	1183.801181	-56.965783	278.082810	1125.946058	-419.050567	440.304615	1070.209323	-63.512258	515.400675	1027.279944	-79.416169	561.414719	955.673697	-83.113329	533.259900	1050.727175	-103.542641	637.232143	834.523047	-122.680410	605.972434	827.954527	-233.697492	530.442949	781.548630	-93.605520	459.233975	726.009909	-106.519306	373.148789	717.983728	-107.147520	472.901652	701.421433	-133.423457	239.558504	644.823272	-111.657519	254.442438	640.974981	-197.810096	164.826965	674.118140	-146.736528	359.754614	444.028104	-157.781244	299.646352	474.978260	-98.227087	281.286006	1034.365119	-445.296557	316.161956	955.994800	-460.237075	352.351503	962.301643	-459.352227	308.037840	867.296775	-461.799384	321.019693	699.058629	-454.993181	368.365980	664.319830	-353.082315	283.682480	574.194841	-473.542060	279.261355	488.725322	-456.846960	231.058679	414.633555	-448.635497	311.745803	481.225071	-434.792332	182.515526	274.743161	-437.377895	187.740166	277.674949	-349.158562	110.409740	286.999090	-392.924693	372.250275	135.363981	-407.544231	290.827798	136.402097	-466.674639	-177.451818	938.551805	-279.694238	-3.099285	85.780680	-484.719202	-14.949099	80.562312	-84.266138	
1754	8.7700	811.459610	1291.206904	-109.143377	797.129676	1265.900811	-432.474305	819.685018	1348.472080	-273.311202	759.242453	1204.520482	-268.698675	558.985072	1157.922336	56.431918	701.463868	937.729532	-45.720823	570.070921	1149.878411	-592.079756	697.178806	947.221468	-477.624761	221.335529	1243.126639	-235.094682	362.582085	1207.603480	-405.493424	383.452703	1223.822797	-88.438888	390.801199	1148.953041	-365.676380	NaN	NaN	NaN	262.267569	1281.269845	-198.511092	258.491986	1279.644927	-274.463132	336.517376	1183.662735	-57.181938	277.369519	1124.963108	-419.199141	439.752740	1069.908450	-63.614288	514.652196	1026.604599	-79.522987	560.406676	954.648176	-82.757021	532.472126	1049.768537	-103.790219	635.546412	832.846305	-121.937011	604.381382	826.322370	-233.196375	528.570520	780.156450	-93.128750	457.087994	725.086688	-106.061742	370.962681	717.296516	-106.813790	470.694775	700.326549	-132.964472	237.018345	644.816849	-111.494299	252.234609	640.533234	-197.452913	163.223386	675.179023	-146.353668	353.155250	441.357419	-157.731203	293.891859	473.487708	-98.451112	281.340718	1033.031545	-445.534931	316.717192	954.827731	-459.915985	352.915300	961.231379	-458.365115	308.957270	866.024421	-461.389235	322.722182	698.064310	-453.819887	368.113168	664.080852	-351.653368	285.917388	573.075873	-472.741031	281.844590	487.698985	-455.841548	234.065266	413.328080	-448.002551	314.238385	480.523376	-433.573861	186.173755	273.305860	-437.130961	191.222047	276.380572	-348.753606	113.560096	284.588171	-392.856263	377.932967	137.393745	-407.293473	296.571965	137.206317	-466.485939	-177.409316	938.540570	-279.642692	-3.092003	85.749349	-484.719864	-14.949516	80.552153	-84.278754	
1755	8.7750	810.561033	1292.561397	-109.945882	796.326166	1266.427363	-433.119823	818.638596	1349.333545	-274.028740	758.522085	1205.313039	-269.259637	558.938340	1158.160369	56.129342	701.510321	937.679622	-45.548443	569.733083	1149.313920	-592.553415	696.887232	947.088304	-477.303898	220.334882	1242.801808	-235.111084	361.422592	1207.242570	-405.683019	382.877179	1223.748897	-88.742546	389.806505	1148.824033	-365.692236	NaN	NaN	NaN	261.176425	1281.127461	-198.612135	257.277601	1279.535996	-274.648286	336.022579	1183.453386	-57.453473	276.659534	1123.968872	-419.327726	439.161998	1069.410681	-63.660954	513.946303	1025.666391	-79.574655	559.271323	953.631753	-82.618525	531.716573	1048.734774	-104.054676	632.916248	831.466077	-120.045666	602.693378	824.457685	-232.647992	526.593218	778.699940	-92.509640	454.720461	723.855878	-105.778361	368.818389	716.411177	-106.431064	468.506251	699.210221	-132.540820	234.507129	644.412433	-111.287676	250.060032	639.816924	-197.019278	161.273672	676.105132	-146.533419	347.134575	438.831430	-157.592877	288.462939	471.954311	-98.455023	281.427865	1031.675364	-445.778337	317.390658	953.591010	-459.564200	353.574789	960.140098	-457.392786	310.071549	864.733522	-461.076078	324.287897	697.364316	-452.940328	368.141925	663.858129	-350.219755	288.255025	572.393446	-471.874954	284.525007	487.068126	-454.904068	236.997112	412.366022	-447.402718	316.660740	479.973505	-432.206924	189.572531	272.209177	-436.884967	194.625592	275.461186	-348.257756	116.496583	282.384870	-392.655249	383.099726	139.439848	-407.070886	301.791663	138.094627	-466.351579	-177.422770	938.505065	-279.755747	-3.103735	85.744419	-484.727661	-14.955410	80.544447	-84.277916	
1756	8.7800	809.686206	1293.816280	-110.712193	795.470227	1266.909789	-433.753711	817.429498	1350.288208	-274.717975	757.863837	1205.894389	-269.802799	558.845203	1158.355807	55.807208	701.523819	937.661495	-45.414188	569.383003	1148.731144	-592.994051	696.570188	947.026023	-476.969531	219.285784	1242.472299	-235.185394	360.268755	1206.835486	-405.757075	382.200359	1223.631372	-89.560516	388.774227	1148.665576	-365.643431	NaN	NaN	NaN	260.112248	1280.804369	-198.911089	255.925677	1279.375656	-274.947250	335.494718	1183.187638	-57.720244	275.846847	1122.944354	-419.526277	438.500826	1068.937963	-63.721278	513.025454	1024.771671	-79.468138	558.200319	952.392851	-82.319826	530.821300	1047.497059	-104.219342	631.016944	829.804697	-119.361076	600.876688	822.609143	-232.077223	524.555187	777.123502	-91.929709	452.564238	722.300469	-105.299057	366.640472	715.249702	-106.017298	466.133414	698.068368	-131.846687	232.093222	643.653838	-111.037327	247.708543	638.987190	-196.679812	159.417606	676.502005	-146.355553	341.910909	436.598348	-157.754612	283.591503	470.454567	-98.470046	281.522993	1030.313222	-446.001775	318.151507	952.501659	-459.198478	354.280152	959.296205	-456.386745	311.386563	863.643364	-460.816182	326.226418	696.893262	-452.126501	368.441182	663.833834	-348.950724	290.419745	571.982399	-470.879929	287.090042	486.775081	-453.938154	239.843275	411.834537	-446.749112	319.047415	479.904865	-430.927826	192.799109	271.489172	-436.449327	197.825973	274.897659	-347.694334	119.195258	280.702213	-392.413951	387.731181	141.402205	-406.871875	306.505958	139.061317	-466.204411	-177.417996	938.512148	-279.774474	-3.090101	85.729482	-484.733852	-14.968888	80.532339	-84.280366	
1757	8.7850	808.773425	1295.107928	-111.536121	794.648630	1267.369768	-434.452920	816.197178	1351.262741	-275.513943	757.020985	1206.852301	-270.371050	558.709582	1158.548433	55.458673	701.532365	937.711014	-45.305518	568.984054	1148.103851	-593.340615	696.291598	946.949478	-476.615154	218.223290	1242.156263	-235.308109	359.033476	1206.478760	-405.826189	381.641500	1223.594528	-89.774299	387.739369	1148.493128	-365.412175	NaN	NaN	NaN	259.078615	1280.577031	-199.137360	254.579645	1279.191674	-275.243955	334.945488	1182.900421	-57.894692	275.122312	1122.012117	-419.705804	437.801325	1068.261648	-63.801639	512.067944	1023.676587	-79.416766	556.882221	951.136143	-81.972356	529.926102	1046.185821	-104.287571	629.009889	827.869956	-118.711300	598.945440	820.616657	-231.495453	522.449217	775.312031	-91.315327	450.362442	720.643493	-104.764170	364.454444	713.753407	-105.489422	463.958369	696.065811	-131.547513	229.633697	642.685876	-110.791354	244.857492	638.310480	-196.802988	157.496403	676.514074	-146.091863	337.312141	434.707693	-157.745170	279.371872	469.100873	-98.422590	281.527678	1029.248644	-446.179327	318.933842	951.641620	-458.790443	354.941403	958.678543	-455.326719	312.840013	862.793808	-460.481054	328.353760	696.674148	-451.334560	369.055008	664.045119	-347.726817	292.760595	571.993998	-470.029297	289.540359	486.648102	-452.986748	242.544335	411.726320	-446.051918	321.384473	480.045234	-429.654880	195.713781	271.080859	-435.894187	200.870097	274.440384	-346.995273	121.642237	279.435455	-392.087808	391.744121	143.127191	-406.675896	310.580226	140.120678	-466.062571	-177.401152	938.493661	-279.713342	-3.104566	85.721103	-484.715825	-14.947397	80.521066	-84.255689	
